<?xml version="1.0" standalone="no"?>
<!DOCTYPE svg PUBLIC "-//W3C//DTD SVG 20010904//EN"
 "http://www.w3.org/TR/2001/REC-SVG-20010904/DTD/svg10.dtd">
<svg version="1.0" xmlns="http://www.w3.org/2000/svg"
 width="260.000000pt" height="260.000000pt" viewBox="0 0 260.000000 260.000000"
 preserveAspectRatio="xMidYMid meet">
<metadata>
Created by potrace 1.11, written by Peter Selinger 2001-2013
</metadata>
<g transform="translate(0.000000,260.000000) scale(0.100000,-0.100000)"
fill="#000000" stroke="none">
<path d="M0 1300 l0 -1300 1300 0 1300 0 0 1300 0 1300 -1300 0 -1300 0 0
-1300z m2035 880 c153 -39 235 -122 235 -239 0 -71 -34 -133 -117 -214 -96
-93 -209 -164 -365 -227 l-58 -24 71 -27 c149 -58 269 -151 307 -237 10 -24
16 -67 16 -122 1 -77 -2 -92 -32 -151 -98 -201 -407 -385 -767 -458 -369 -75
-665 -35 -665 89 0 69 41 96 165 107 l75 6 57 106 c31 58 132 255 224 438 175
347 224 433 268 470 36 32 90 31 125 -2 24 -23 27 -30 21 -65 -7 -40 -6 -40
18 -31 54 21 175 85 239 128 115 76 185 173 158 222 -30 57 -164 83 -311 61
-210 -30 -412 -127 -617 -295 -123 -101 -131 -105 -181 -105 -82 0 -120 47
-100 123 51 192 465 418 855 467 104 13 287 4 379 -20z"/>
<path d="M1358 1023 c-92 -185 -166 -338 -164 -340 6 -6 181 27 250 48 277 83
440 260 382 414 -22 57 -102 130 -188 172 -119 58 -90 88 -280 -294z"/>
</g>
</svg>
